# xmcd
#
# Track frame offsets:
#	150
#	17594
#	29887
#	46539
#	65237
#	79188
#	95811
#	111603
#	124669
#	138440
#	154213
#	169995
#	183524
#
# Disc length: 2655 seconds
#
# Revision: 1
# Processed by: cddbd v1.5.2PL0 Copyright (c) Steve Scherf et al.
# Submitted via: audiograbber 1.83.01
#
DISCID=bd0a5d0d
DTITLE=Lee Greenwood - All Time Greatest Hits
DYEAR=2004
DGENRE=Country
TTITLE0=Love Will Find Its Way To You
TTITLE1=Holdin' A Good Hand
TTITLE2=Ring On Her Finger, Time On Her Hands
TTITLE3=Mornin' Ride
TTITLE4=I. O. U.
TTITLE5=Somebody's Gonna Love You
TTITLE6=It Turns Me Inside Out
TTITLE7=Touch And Go Crazy
TTITLE8=Dixie Road
TTITLE9=I Don't Mind The Thorns
TTITLE10=Wind Beneath My Wings
TTITLE11=Between A Rock And A Heartache
TTITLE12=God Bless The USA (2003)
EXTD=
EXTT0=
EXTT1=
EXTT2=
EXTT3=
EXTT4=
EXTT5=
EXTT6=
EXTT7=
EXTT8=
EXTT9=
EXTT10=
EXTT11=
EXTT12=
PLAYORDER=
